<?xml version="1.0" encoding="utf-8"?>
<!-- Generator: Adobe Illustrator 24.1.2, SVG Export Plug-In . SVG Version: 6.00 Build 0)  -->
<svg version="1.1" xmlns="http://www.w3.org/2000/svg" xmlns:xlink="http://www.w3.org/1999/xlink" x="0px" y="0px"
	 viewBox="0 0 360 360" style="enable-background:new 0 0 360 360;" xml:space="preserve">
<style type="text/css">
	.st0{fill:#232323;stroke:#FFFFFF;stroke-width:5;stroke-miterlimit:10;}
	.st1{fill:#FFFFFF;stroke:#FFFFFF;stroke-width:5;stroke-miterlimit:10;}
	.st2{fill:#FFFFFF;stroke:#000000;stroke-width:5;stroke-miterlimit:10;}
</style>
<g id="Layer_2">
	<rect x="-8.54" y="-35.83" class="st0" width="376.25" height="387.92"/>
</g>
<g id="Layer_1">
	<path class="st1" d="M222.7,319.16c-4.54,0-18.24-0.02-21.42-10.39c-0.27-0.88-0.44-1.73-0.52-2.55
		c-3.88-0.94-8.03-2.04-12.36-3.33c-10.5,2.21-20.72,3.34-30.43,3.34c-21.51,0-39.32-5.49-52.94-16.31
		c-23.38-18.59-30.96-51.47-28.87-68.88c0.87-7.3,3.7-12.1,8.4-14.27c1.56-0.72,3.21-1.08,4.92-1.08c7.37,0,11.37,5.75,17.43,14.44
		c5.77,8.28,14.48,20.79,28.37,32.72c14.92,12.81,32.58,22.43,53.93,29.36c8.63-2.12,14.64-4.42,16.95-5.37
		c1.06-0.43,1.88-0.78,2.42-1.02c13.86-5.91,34.8-14.84,38.81-30.75c5.43-21.54-20.58-49.05-39.39-62.29
		c-22.27-15.67-44.49-18.54-63.71-19.8c-6.35,1.18-12.57,2.45-18.59,3.68c-16.68,3.4-31.08,6.34-42.46,6.34
		c-12.83,0-21.41-4.12-25.51-12.23c-6.69-13.26,1.42-30.64,10.5-44c-3.61-23.03,4.51-47.31,19.83-57.9
		c5.23-3.62,10.87-5.37,17.23-5.37c8.11,0,16.36,2.85,26.81,6.46c0.15,0.05,0.29,0.1,0.44,0.15c13.18-6.61,25.52-9.96,36.73-9.96
		c5.53,0,10.78,0.83,15.62,2.48c10.09,3.43,23.02,11.86,34.43,22.36c6.11-0.08,11.67-0.34,16.66-0.57c4.95-0.23,9.23-0.43,13.2-0.43
		c6.91,0,21.29,0,28.27,12.36c7.09,12.55,2.2,29.73-4.74,41.63c-3.81,6.53-11.77,17.48-22.27,17.48c0,0,0,0,0,0
		c-0.48,0-0.97-0.02-1.44-0.07c-10.05-1.01-13.99-11.11-16.59-17.8c-0.28-0.73-0.56-1.45-0.84-2.14
		c-5.17-12.76-13.49-23.25-20.4-30.46c-11.14-0.18-21.84-1.02-32.59-2.57c-18.06-2.6-31.98-6.53-44.17-10.55
		c-16.2,9.56-32.7,24.09-44.59,39.26c1,2.9,2.29,5.53,3.87,7.84c7.57,11.12,20.49,12.33,42.67,13.52c2.21,0.12,4.45,0.24,6.74,0.38
		c19.17-3.48,33.82-5.04,47.34-5.04c29.12,0,51.04,7.66,67.01,23.4c26.65,26.27,35.3,74.43,18.88,105.17
		c-7.62,14.26-20.25,23.93-31.92,30.76c3.88,3.39,3.95,7.56,3.68,9.63c-1.07,8.21-9.6,12.38-25.35,12.38
		C222.71,319.16,222.71,319.16,222.7,319.16z"/>
	<rect x="-4.68" y="-17.68" class="st0" width="376.25" height="387.92"/>
	<path class="st1" d="M275.9,94.77c-8.36-14.8-35.87-1.13-88.75-8.75c-51.96-7.49-69.45-27.03-86.25-15.42
		c-16.68,11.53-22.47,46.74-8.33,67.5c22.07,32.43,74.6,2.18,128.33,40c21.63,15.22,50.19,45.74,43.33,72.92
		c-5.23,20.71-28.82,30.78-44.58,37.5c-0.58,0.25-1.44,0.61-2.56,1.07c-17.41,7.13-67.76,20.6-98.69-3.99
		c-26.21-20.84-28.87-63.3-22.5-66.25c5.1-2.36,13.37,21.72,40,44.58c48.23,41.41,110.21,38.95,109.41,45.07
		c-0.51,3.89-25.7,5.66-27.33,0.35c-2.16-7.03,40.65-14.19,56.67-44.17c14.31-26.79,6.36-70.22-17.08-93.33
		c-53.03-52.28-170.03,15.11-183.75-12.08c-12.97-25.71,68.71-109.91,115-94.17c15.48,5.26,46.47,28.25,59.17,59.58
		c2.36,5.82,4.64,13.3,9.17,13.75C266.69,139.89,284.19,109.45,275.9,94.77z"/>
	<path class="st2" d="M-145-5"/>
</g>
</svg>
